<?xml version="1.0" encoding="utf-8"?>
<!-- Generator: Adobe Illustrator 27.0.1, SVG Export Plug-In . SVG Version: 6.00 Build 0)  -->
<svg version="1.1" id="Ebene_1" xmlns="http://www.w3.org/2000/svg" xmlns:xlink="http://www.w3.org/1999/xlink" x="0px" y="0px"
	 viewBox="0 0 841.89 387.8" style="enable-background:new 0 0 841.89 387.8;" xml:space="preserve">
<style type="text/css">
	.st0{fill:#2D2E2C;}
	.st1{fill:#3D3D3B;}
	.st2{fill:#2CAADF;}
	.st3{fill:url(#SVGID_1_);}
	.st4{fill:#FFD400;}
	.st5{fill:#FFFFFF;}
</style>
<path class="st0" d="M137.46,238.4c-26.19,0-47.48-21.61-47.48-48.17s21.29-48.17,47.48-48.17s47.48,21.61,47.48,48.17
	C184.98,216.79,163.64,238.4,137.46,238.4z M137.46,155.27c-18.98,0-34.45,15.66-34.45,34.96s15.47,34.96,34.45,34.96
	s34.45-15.66,34.45-34.96S156.48,155.27,137.46,155.27z"/>
<path class="st0" d="M415.3,238.68c-26.19,0-47.48-21.61-47.48-48.17s21.29-48.17,47.48-48.17c26.19,0,47.48,21.61,47.48,48.17
	S441.48,238.68,415.3,238.68z M415.3,155.55c-18.98,0-34.45,15.66-34.45,34.96c0,19.26,15.47,34.96,34.45,34.96
	c18.98,0,34.45-15.66,34.45-34.96C449.7,171.21,434.28,155.55,415.3,155.55z"/>
<path class="st0" d="M235.18,142.39c-9.84,0-18.84,3.37-25.68,9.61v-6.28c0-0.32-0.23-0.55-0.55-0.55h-12.01
	c-0.28,0-0.55,0.23-0.55,0.55v28.86h0.05c-0.05,0.55-0.05,2.22-0.05,2.77v59.76c0,0.37,0.32,0.69,0.69,0.69h11.73
	c0.37,0,0.69-0.32,0.69-0.69V177.4c0-13.02,11.5-21.8,25.68-21.8c14.13,0,25.68,7.85,25.68,22.49v59.07c0,0.37,0.32,0.69,0.69,0.69
	h11.68c0.37,0,0.69-0.32,0.69-0.69v-59.07C273.93,156.15,256.56,142.39,235.18,142.39z"/>
<path class="st0" d="M486.23,238.31h-12.56c-0.14,0-0.23-0.09-0.23-0.23V114.96c0-0.14,0.09-0.23,0.23-0.23h12.56
	c0.14,0,0.23,0.09,0.23,0.23v123.08C486.46,238.22,486.37,238.31,486.23,238.31z"/>
<path class="st0" d="M86.75,155.41c-19.77-19.81-52.33-18.89-70.89,2.82c-15.7,18.33-15.66,46.14,0.05,64.43
	c18.52,21.57,50.89,22.54,70.66,2.86c0.14-0.14,0.14-0.37,0-0.55l-8.96-9.05c-0.14-0.14-0.32-0.14-0.46,0
	c-14.27,14.18-37.64,13.53-51.08-1.94c-11.04-12.7-11.04-34.45,0-47.11c13.44-15.47,36.81-16.12,51.08-1.89
	c0.14,0.14,0.32,0.14,0.46,0l9.05-9.14C86.84,155.69,86.84,155.5,86.75,155.41z"/>
<g>
	<path class="st1" d="M359.97,206.17C359.97,206.12,359.97,206.12,359.97,206.17L359.97,206.17z"/>
	<path class="st0" d="M360.24,209.4c-1.02-10.95-7.99-19.72-21.15-23.74c-3.14-0.97-8.36-2.17-11.68-2.86
		c-9.42-1.94-24.66-4.62-27.06-11.22c-2.77-7.57,4.62-13.12,10.11-14.69c9.47-2.72,27.94-0.92,39.35,5.91
		c0.09,0.05,0.23,0.05,0.32-0.05l9.14-9.14c0.14-0.14,0.14-0.37-0.05-0.46c-13.62-9.88-37.09-12.7-52.51-8.59
		c-8.68,2.31-14.09,6.42-18.01,12.89c-4.16,6.88-3.97,13.76-1.2,19.58c5.82,12.19,24.02,15.93,37.27,18.66
		c3.42,0.69,6.65,1.39,8.73,1.99c7.99,2.45,12.93,7.39,13.44,12.93c0.37,4.3-2.03,8.73-7.3,11.5c-14.5,7.57-32.7,2.96-46.46-5.77
		c-0.14-0.09-0.32-0.09-0.46,0.05l-8.91,9.05c-0.18,0.18-0.14,0.46,0.05,0.6c6.37,4.62,16.53,9.28,28.5,11.5
		c3.88,0.74,7.67,1.11,11.31,1.11c7.94,0,15.33-1.75,21.94-5.22C355.67,228.15,361.12,219.19,360.24,209.4L360.24,209.4z"/>
</g>
<path class="st2" d="M273.7,382.71h-12.56c-0.14,0-0.23,0.14-0.23,0V259.36c0-0.14,0.09-0.23,0.23-0.23h12.56
	c0.14,0,0.23,0.09,0.23,0.23v123.36C273.93,382.9,273.84,382.71,273.7,382.71z"/>
<g>
	<path class="st2" d="M568.01,353.04c-1.02-10.95-7.99-19.72-21.15-23.74c-3.14-0.97-8.36-2.17-11.68-2.86
		c-9.42-1.94-24.66-4.62-27.06-11.22c-2.77-7.57,4.62-13.12,10.11-14.69c9.47-2.72,27.94-0.92,39.35,5.91
		c0.09,0.05,0.23,0.05,0.32-0.05l9.14-9.14c0.14-0.14,0.14-0.37-0.05-0.46c-13.62-9.88-37.09-12.7-52.51-8.59
		c-8.68,2.31-14.09,6.42-18.01,12.89c-4.16,6.88-3.97,13.76-1.2,19.58c5.82,12.19,24.02,15.93,37.27,18.66
		c3.42,0.69,6.65,1.39,8.73,1.99c7.99,2.45,12.93,7.39,13.44,12.93c0.37,4.3-2.03,8.73-7.3,11.5c-14.5,7.57-32.7,2.96-46.46-5.77
		c-0.14-0.09-0.32-0.09-0.46,0.05l-8.91,9.05c-0.18,0.18-0.14,0.46,0.05,0.6c6.37,4.62,16.53,9.28,28.5,11.5
		c3.88,0.74,7.67,1.11,11.31,1.11c7.94,0,15.33-1.75,21.94-5.22C563.43,371.79,568.88,362.83,568.01,353.04L568.01,353.04z"/>
</g>
<path class="st2" d="M378.42,286.38h-12.56c-0.14,0-0.23,0.07-0.23,0.17v14.91c-8.66-9.27-20.89-15.08-34.45-15.08
	c-26.19,0-47.48,21.61-47.48,48.17s21.29,48.17,47.48,48.17c13.55,0,25.79-5.8,34.45-15.06v15.06c0,0.1,0.09,0,0.23,0h12.56
	c0.14,0,0.23,0.14,0.23,0v-96.17C378.65,286.44,378.55,286.38,378.42,286.38z M331.17,369.51c-18.98,0-34.45-15.66-34.45-34.96
	c0-19.3,15.47-34.96,34.45-34.96c19.03,0,34.45,15.66,34.45,34.96C365.62,353.85,350.15,369.51,331.17,369.51z"/>
<path class="st2" d="M438.99,286.38c-13.56,0-25.8,5.8-34.45,15.08v-42.1c0-0.14-0.09-0.23-0.23-0.23h-12.56
	c-0.14,0-0.23,0.09-0.23,0.23v123.36c0,0.14,0.09,0,0.23,0h12.56c0.14,0,0.23,0.18,0.23,0v-15.08c8.66,9.27,20.89,15.08,34.45,15.08
	c26.19,0,47.48-21.61,47.48-48.17S465.17,286.38,438.99,286.38z M438.99,369.51c-18.98,0-34.45-15.7-34.45-34.96
	c0-19.3,15.47-34.96,34.45-34.96s34.41,15.66,34.45,34.96C473.44,353.85,457.97,369.51,438.99,369.51z"/>
<path class="st0" d="M833.34,346.36L749.18,219.5v-85.01c1.59-0.52,3.06-1.43,4.22-2.67c1.94-2.05,2.93-4.73,2.78-7.56
	c-0.28-5.41-4.92-9.65-10.57-9.65h-25.57h-2.66H696c-5.64,0-10.29,4.24-10.57,9.65c-0.15,2.83,0.84,5.51,2.79,7.56
	c1.17,1.23,2.63,2.14,4.22,2.67v85.01l-84.17,126.86c-2.72,4.1-4.03,8.89-3.68,13.44l0.03,0.35c1.12,12.66,12.33,22.58,25.52,22.58
	h86.75h7.84h86.75c13.19,0,24.4-9.92,25.53-22.59l0.02-0.31C837.38,355.25,836.07,350.47,833.34,346.36z M830.69,359.6
	c-0.83,9.42-9.27,16.81-19.22,16.81h-86.75h-7.84h-86.75c-9.94,0-18.38-7.38-19.22-16.81l-0.02-0.23c-0.24-3.19,0.69-6.56,2.64-9.49
	l85.22-128.46v-92.74h-3.17c-1.07,0-2.06-0.43-2.8-1.2s-1.11-1.79-1.05-2.86c0.11-2.01,2.01-3.64,4.25-3.64h21.39h2.66h25.57
	c2.24,0,4.14,1.63,4.25,3.64c0.06,1.07-0.32,2.09-1.05,2.87c-0.74,0.78-1.73,1.2-2.8,1.2h-3.17v92.74l85.22,128.46
	c1.95,2.93,2.89,6.31,2.64,9.49L830.69,359.6z"/>
<linearGradient id="SVGID_1_" gradientUnits="userSpaceOnUse" x1="618.9261" y1="313.3767" x2="823.7505" y2="313.3767">
	<stop  offset="0" style="stop-color:#0887C7"/>
	<stop  offset="0.4969" style="stop-color:#2EB8E7"/>
	<stop  offset="0.9996" style="stop-color:#0586C6"/>
</linearGradient>
<path class="st3" d="M683.24,260.57c3.47-5.75,22.51,1.65,35.17,5.15c2.59,0.72,5.24,1.24,7.9,1.59
	c11.87,1.59,16.56,1.76,31.15,0.72c5.57-0.3,8.21,1.78,10.55,5.29c11.87,17.77,47.44,71.01,53.36,79.87
	c0.61,0.92,0.81,2.01,1.35,2.96c2.86,5.04-0.56,11.16-6.13,12.15c0,0-155.63,0-187.52,0c-5.28,0-9.94-4.03-10.14-9.31
	c-0.08-2.02,0.45-4.03,1.76-5.86C630.91,338.72,683.24,260.57,683.24,260.57z"/>
<path class="st4" d="M704.38,64.04c12.2,0,22.13-9.93,22.13-22.13s-9.93-22.13-22.13-22.13c-12.2,0-22.13,9.93-22.13,22.13
	S692.18,64.04,704.38,64.04z M690.68,41.9c0-7.55,6.14-13.7,13.7-13.7c7.55,0,13.7,6.14,13.7,13.7s-6.15,13.7-13.7,13.7
	C696.83,55.6,690.68,49.46,690.68,41.9z"/>
<path class="st4" d="M725.46,22.35c5.28,0,9.58-4.3,9.58-9.58s-4.3-9.58-9.58-9.58s-9.58,4.3-9.58,9.58S720.18,22.35,725.46,22.35z
	 M720.55,12.77c0-2.71,2.2-4.91,4.91-4.91c2.71,0,4.91,2.2,4.91,4.91s-2.2,4.91-4.91,4.91C722.75,17.68,720.55,15.48,720.55,12.77z"
	/>
<path class="st4" d="M728.81,64.75c0,9,7.32,16.32,16.31,16.32c9,0,16.32-7.32,16.32-16.32s-7.32-16.32-16.32-16.32
	C736.13,48.43,728.81,55.75,728.81,64.75z M735.5,64.75c0-5.31,4.32-9.63,9.63-9.63c5.31,0,9.63,4.32,9.63,9.63
	s-4.32,9.63-9.63,9.63C739.82,74.38,735.5,70.06,735.5,64.75z"/>
<path class="st4" d="M719.49,79.95c-6.39,0-11.59,5.2-11.59,11.59s5.2,11.59,11.59,11.59c6.39,0,11.59-5.2,11.59-11.59
	S725.89,79.95,719.49,79.95z M725.82,91.54c0,3.49-2.84,6.32-6.32,6.32c-3.49,0-6.32-2.84-6.32-6.32c0-3.48,2.83-6.32,6.32-6.32
	C722.98,85.22,725.82,88.06,725.82,91.54z"/>
<path class="st4" d="M745.74,101.22c0-4.24-3.45-7.68-7.69-7.68s-7.69,3.45-7.69,7.68c0,4.24,3.45,7.69,7.69,7.69
	S745.74,105.45,745.74,101.22z M738.05,104.8c-1.98,0-3.58-1.61-3.58-3.58c0-1.98,1.61-3.58,3.58-3.58s3.58,1.61,3.58,3.58
	C741.64,103.19,740.03,104.8,738.05,104.8z"/>
<path class="st4" d="M730.44,129.05c-5.34,0-9.68,4.34-9.68,9.68s4.34,9.68,9.68,9.68c5.34,0,9.68-4.34,9.68-9.68
	S735.78,129.05,730.44,129.05z M735.42,138.73c0,2.75-2.23,4.98-4.98,4.98c-2.75,0-4.98-2.23-4.98-4.98c0-2.75,2.23-4.98,4.98-4.98
	C733.19,133.75,735.42,135.98,735.42,138.73z"/>
<path class="st4" d="M733.41,259.84c9,0,16.32-7.32,16.32-16.32c0-9-7.32-16.32-16.32-16.32c-9,0-16.32,7.32-16.32,16.32
	C717.09,252.52,724.41,259.84,733.41,259.84z M723.78,243.52c0-5.31,4.32-9.63,9.63-9.63c5.31,0,9.63,4.32,9.63,9.63
	c0,5.31-4.32,9.63-9.63,9.63C728.1,253.15,723.78,248.83,723.78,243.52z"/>
<path class="st5" d="M709.7,270.4c-12.01,0-21.79,9.78-21.79,21.79c0,12.02,9.78,21.79,21.79,21.79c12.02,0,21.79-9.78,21.79-21.79
	C731.5,280.18,721.72,270.4,709.7,270.4z M709.7,305.65c-7.42,0-13.46-6.04-13.46-13.46s6.04-13.46,13.46-13.46
	s13.46,6.04,13.46,13.46S717.13,305.65,709.7,305.65z"/>
<path class="st5" d="M739.44,285.46c0,7.69,6.25,13.94,13.94,13.94c7.69,0,13.94-6.26,13.94-13.94c0-7.69-6.25-13.94-13.94-13.94
	C745.7,271.51,739.44,277.77,739.44,285.46z M745.42,285.46c0-4.39,3.57-7.97,7.97-7.97s7.97,3.57,7.97,7.97s-3.57,7.97-7.97,7.97
	S745.42,289.85,745.42,285.46z"/>
<path class="st5" d="M742.69,306.81c-7.69,0-13.94,6.25-13.94,13.94s6.25,13.94,13.94,13.94c7.69,0,13.95-6.26,13.95-13.94
	S750.38,306.81,742.69,306.81z M750.66,320.76c0,4.39-3.57,7.97-7.97,7.97c-4.39,0-7.96-3.57-7.96-7.97c0-4.39,3.57-7.97,7.96-7.97
	C747.08,312.79,750.66,316.37,750.66,320.76z"/>
<path class="st5" d="M766.39,330.12c-5.12,0-9.29,4.17-9.29,9.29s4.17,9.29,9.29,9.29c5.12,0,9.29-4.17,9.29-9.29
	S771.52,330.12,766.39,330.12z M766.39,344.12c-2.6,0-4.71-2.11-4.71-4.71c0-2.6,2.11-4.71,4.71-4.71c2.6,0,4.71,2.11,4.71,4.71
	C771.1,342,768.99,344.12,766.39,344.12z"/>
</svg>
